<svg width="340" height="241" viewBox="0 0 340 241" fill="none" xmlns="http://www.w3.org/2000/svg">
<rect width="340" height="241" fill="#1B1B1B"/>
<line x1="48.4871" y1="7.8871" x2="53.9986" y2="31.6653" stroke="#878787"/>
<line x1="61.4851" y1="3.87884" x2="67.6521" y2="28.5706" stroke="#878787"/>
<path d="M54.1094 32.1557L70.2034 28.5181C76.3985 27.1179 82.5556 31.0049 83.9558 37.1999C85.356 43.3949 81.469 49.552 75.274 50.9522L63.5692 53.5977C61.1451 54.1456 58.7358 52.6246 58.1879 50.2005L54.1094 32.1557Z" stroke="#878787"/>
<line x1="54.5971" y1="32.0454" x2="67.2772" y2="29.1795" stroke="#1B1B1B"/>
<line x1="272.489" y1="2.10546" x2="266.912" y2="27.9524" stroke="#878787"/>
<line x1="285.622" y1="6.09006" x2="280.568" y2="31.0336" stroke="#878787"/>
<path d="M266.801 28.4449L282.894 32.0836C289.089 33.4842 292.976 39.6416 291.575 45.8365C290.175 52.0314 284.017 55.918 277.822 54.5173L266.118 51.871C263.694 51.323 262.173 48.9135 262.721 46.4894L266.801 28.4449Z" stroke="#878787"/>
<line x1="267.288" y1="28.5552" x2="279.968" y2="31.422" stroke="#1B1B1B"/>
<line x1="105.5" y1="0.995498" x2="105.725" y2="26.0425" stroke="#878787"/>
<line x1="119.5" y1="0.995499" x2="119.725" y2="26.0425" stroke="#878787"/>
<path d="M105.726 26.547H122.226C128.577 26.547 133.726 31.6957 133.726 38.047C133.726 44.3983 128.577 49.547 122.226 49.547H110.226C107.74 49.547 105.726 47.5323 105.726 45.047V26.547Z" stroke="#878787"/>
<line x1="106.226" y1="26.547" x2="119.226" y2="26.547" stroke="#1B1B1B"/>
<line x1="214.5" y1="0.995498" x2="214.725" y2="26.0425" stroke="#878787"/>
<line x1="228.5" y1="0.995499" x2="228.725" y2="26.0425" stroke="#878787"/>
<path d="M214.726 26.547H231.226C237.577 26.547 242.726 31.6957 242.726 38.047C242.726 44.3983 237.577 49.547 231.226 49.547H219.226C216.74 49.547 214.726 47.5323 214.726 45.047V26.547Z" stroke="#878787"/>
<line x1="215.226" y1="26.547" x2="228.226" y2="26.547" stroke="#1B1B1B"/>
<line x1="159.5" y1="1.9955" x2="159.725" y2="27.0425" stroke="#878787"/>
<line x1="173.5" y1="1.9955" x2="173.725" y2="27.0425" stroke="#878787"/>
<path d="M159.726 27.547H176.226C182.577 27.547 187.726 32.6957 187.726 39.047C187.726 45.3983 182.577 50.547 176.226 50.547H164.226C161.74 50.547 159.726 48.5323 159.726 46.047V27.547Z" stroke="#878787"/>
<line x1="160.226" y1="27.547" x2="173.226" y2="27.547" stroke="#1B1B1B"/>
<line x1="58" y1="78.5" x2="71" y2="78.5" stroke="#878787"/>
<line x1="108" y1="79.5" x2="121" y2="79.5" stroke="#878787"/>
<path d="M64 71.5H65C75.7696 71.5 84.5 80.2304 84.5 91V204C84.5 206.485 82.4853 208.5 80 208.5H49C46.5147 208.5 44.5 206.485 44.5 204V91C44.5 80.2304 53.2304 71.5 64 71.5Z" stroke="#878787"/>
<path d="M114 72.5H115C125.77 72.5 134.5 81.2304 134.5 92V205C134.5 207.485 132.485 209.5 130 209.5H99C96.5147 209.5 94.5 207.485 94.5 205V92C94.5 81.2304 103.23 72.5 114 72.5Z" stroke="#878787"/>
<rect x="0.5" y="1.5" width="339" height="239" rx="79.5" stroke="#878787" stroke-miterlimit="1.41421"/>
<path d="M80.5 96.5V175C80.5 177.485 78.4853 179.5 76 179.5H53C50.5147 179.5 48.5 177.485 48.5 175V96.5C48.5 87.6634 55.6634 80.5 64.5 80.5C73.3366 80.5 80.5 87.6634 80.5 96.5Z" fill="#11506B" stroke="#878787"/>
<path d="M130.5 97.5V176C130.5 178.485 128.485 180.5 126 180.5H103C100.515 180.5 98.5 178.485 98.5 176V97.5C98.5 88.6634 105.663 81.5 114.5 81.5C123.337 81.5 130.5 88.6634 130.5 97.5Z" fill="#D0D326" stroke="#878787"/>
<line x1="58.5" y1="82" x2="58.5" y2="79" stroke="#878787"/>
<line x1="108.5" y1="83" x2="108.5" y2="80" stroke="#878787"/>
<line x1="70.5" y1="82" x2="70.5" y2="79" stroke="#878787"/>
<line x1="120.5" y1="83" x2="120.5" y2="80" stroke="#878787"/>
<rect x="59" y="79" width="11" height="3" fill="#11506B"/>
<rect x="109" y="80" width="11" height="3" fill="#D0D326"/>
<path d="M75.6364 142.636L64 142.636L64 141.273L73.1364 134.932L73.1364 134.818L64 134.818L64 133.409L75.6364 133.409L75.6364 134.773L66.4773 141.136L66.4773 141.25L75.6364 141.25L75.6364 142.636ZM70.4432 150.274L69.1932 150.274L69.1932 145.183L70.4432 145.183L70.4432 150.274ZM66.3864 152.338L67.5455 152.338L75.6364 157.452L75.6364 158.293L73.8409 158.293L73.8409 157.724L67.7273 153.861L67.6364 153.861L67.6364 160.747L66.3864 160.747L66.3864 152.338ZM64 157.815L66.7386 157.815L67.2784 157.815L75.6364 157.815L75.6364 159.156L64 159.156L64 157.815ZM63.8409 166.672C63.8409 165.816 64.0739 165.087 64.5398 164.484C65.0095 163.882 65.6894 163.422 66.5795 163.104C67.4735 162.786 68.553 162.626 69.8182 162.626C71.0758 162.626 72.1496 162.786 73.0398 163.104C73.9337 163.426 74.6155 163.888 75.0852 164.49C75.5587 165.096 75.7955 165.823 75.7955 166.672C75.7955 167.52 75.5587 168.246 75.0852 168.848C74.6155 169.454 73.9337 169.916 73.0398 170.234C72.1496 170.556 71.0758 170.717 69.8182 170.717C68.553 170.717 67.4735 170.558 66.5795 170.24C65.6894 169.922 65.0095 169.462 64.5398 168.859C64.0739 168.257 63.8409 167.528 63.8409 166.672ZM65.0909 166.672C65.0909 167.52 65.5 168.179 66.3182 168.649C67.1364 169.119 68.303 169.354 69.8182 169.354C70.8258 169.354 71.6837 169.246 72.392 169.03C73.1004 168.818 73.6402 168.511 74.0114 168.109C74.3826 167.712 74.5682 167.232 74.5682 166.672C74.5682 165.831 74.1534 165.174 73.3239 164.7C72.4981 164.227 71.3295 163.99 69.8182 163.99C68.8106 163.99 67.9545 164.096 67.25 164.308C66.5455 164.52 66.0095 164.825 65.642 165.223C65.2746 165.625 65.0909 166.107 65.0909 166.672Z" fill="#1B1B1B"/>
<path d="M114 137.409L125.636 137.409L125.636 141.477C125.636 142.288 125.496 142.956 125.216 143.483C124.939 144.009 124.566 144.402 124.097 144.659C123.631 144.917 123.114 145.045 122.545 145.045C122.045 145.045 121.633 144.956 121.307 144.778C120.981 144.604 120.723 144.373 120.534 144.085C120.345 143.801 120.205 143.492 120.114 143.159L120 143.159C119.977 143.515 119.852 143.873 119.625 144.233C119.398 144.593 119.072 144.894 118.648 145.136C118.223 145.379 117.705 145.5 117.091 145.5C116.508 145.5 115.983 145.367 115.517 145.102C115.051 144.837 114.682 144.419 114.409 143.847C114.136 143.275 114 142.53 114 141.614L114 137.409ZM115.25 138.818L115.25 141.614C115.25 142.534 115.428 143.187 115.784 143.574C116.144 143.964 116.58 144.159 117.091 144.159C117.485 144.159 117.848 144.059 118.182 143.858C118.519 143.657 118.788 143.371 118.989 143C119.193 142.629 119.295 142.189 119.295 141.682L119.295 138.818L115.25 138.818ZM120.523 138.818L120.523 141.432C120.523 141.856 120.606 142.239 120.773 142.58C120.939 142.924 121.174 143.197 121.477 143.398C121.78 143.602 122.136 143.705 122.545 143.705C123.057 143.705 123.491 143.527 123.847 143.17C124.206 142.814 124.386 142.25 124.386 141.477L124.386 138.818L120.523 138.818ZM120.443 152.634L119.193 152.634L119.193 147.543L120.443 147.543L120.443 152.634ZM125.636 159.061L114 159.061L114 157.652L124.159 157.652L124.159 157.584L122.273 154.743L123.705 154.743L125.636 157.652L125.636 159.061ZM113.841 166.044C113.841 165.377 113.973 164.777 114.239 164.243C114.504 163.709 114.867 163.281 115.33 162.959C115.792 162.637 116.318 162.461 116.909 162.43L116.909 163.794C116.383 163.847 115.947 164.086 115.602 164.51C115.261 164.938 115.091 165.449 115.091 166.044C115.091 166.521 115.203 166.946 115.426 167.317C115.65 167.692 115.956 167.985 116.347 168.197C116.741 168.413 117.186 168.521 117.682 168.521C118.189 168.521 118.642 168.41 119.04 168.186C119.441 167.966 119.758 167.663 119.989 167.277C120.22 166.891 120.337 166.449 120.341 165.953C120.345 165.597 120.29 165.232 120.176 164.857C120.066 164.482 119.924 164.173 119.75 163.93L119.909 162.612L125.636 163.317L125.636 169.362L124.386 169.362L124.386 164.499L120.955 164.089L120.955 164.158C121.144 164.396 121.301 164.696 121.426 165.055C121.551 165.415 121.614 165.79 121.614 166.18C121.614 166.893 121.443 167.527 121.102 168.084C120.765 168.644 120.303 169.084 119.716 169.402C119.129 169.724 118.458 169.885 117.705 169.885C116.962 169.885 116.299 169.718 115.716 169.385C115.136 169.055 114.678 168.601 114.341 168.021C114.008 167.442 113.841 166.783 113.841 166.044Z" fill="#1B1B1B"/>
<rect x="60" y="102" width="3" height="10" transform="rotate(90 60 102)" fill="#1B1B1B"/>
<rect x="60" y="106" width="2" height="10" transform="rotate(90 60 106)" fill="#1B1B1B"/>
<rect x="60" y="109" width="3" height="10" transform="rotate(90 60 109)" fill="#1B1B1B"/>
<rect x="60" y="115" width="2" height="10" transform="rotate(90 60 115)" fill="#1B1B1B"/>
<rect x="60" y="119" width="3" height="10" transform="rotate(90 60 119)" fill="#1B1B1B"/>
<rect x="60" y="123" width="4" height="10" transform="rotate(90 60 123)" fill="#1B1B1B"/>
<rect x="60" y="130" width="3" height="10" transform="rotate(90 60 130)" fill="#1B1B1B"/>
<rect x="60" y="136" width="5" height="10" transform="rotate(90 60 136)" fill="#1B1B1B"/>
<rect x="60" y="142" width="2" height="10" transform="rotate(90 60 142)" fill="#1B1B1B"/>
<rect x="60" y="147" width="2" height="10" transform="rotate(90 60 147)" fill="#1B1B1B"/>
<rect x="60" y="151" width="4" height="10" transform="rotate(90 60 151)" fill="#1B1B1B"/>
<rect x="60" y="156" width="2" height="10" transform="rotate(90 60 156)" fill="#1B1B1B"/>
<rect x="60" y="160" width="3" height="10" transform="rotate(90 60 160)" fill="#1B1B1B"/>
<rect x="60" y="164" width="2" height="10" transform="rotate(90 60 164)" fill="#1B1B1B"/>
<rect x="60" y="169" width="4" height="10" transform="rotate(90 60 169)" fill="#1B1B1B"/>
<rect x="110" y="103" width="3" height="10" transform="rotate(90 110 103)" fill="#1B1B1B"/>
<rect x="110" y="107" width="2" height="10" transform="rotate(90 110 107)" fill="#1B1B1B"/>
<rect x="110" y="110" width="3" height="10" transform="rotate(90 110 110)" fill="#1B1B1B"/>
<rect x="110" y="116" width="2" height="10" transform="rotate(90 110 116)" fill="#1B1B1B"/>
<rect x="110" y="120" width="3" height="10" transform="rotate(90 110 120)" fill="#1B1B1B"/>
<rect x="110" y="124" width="4" height="10" transform="rotate(90 110 124)" fill="#1B1B1B"/>
<rect x="110" y="131" width="3" height="10" transform="rotate(90 110 131)" fill="#1B1B1B"/>
<rect x="110" y="137" width="5" height="10" transform="rotate(90 110 137)" fill="#1B1B1B"/>
<rect x="110" y="143" width="2" height="10" transform="rotate(90 110 143)" fill="#1B1B1B"/>
<rect x="110" y="148" width="2" height="10" transform="rotate(90 110 148)" fill="#1B1B1B"/>
<rect x="110" y="152" width="4" height="10" transform="rotate(90 110 152)" fill="#1B1B1B"/>
<rect x="110" y="157" width="2" height="10" transform="rotate(90 110 157)" fill="#1B1B1B"/>
<rect x="110" y="161" width="3" height="10" transform="rotate(90 110 161)" fill="#1B1B1B"/>
<rect x="110" y="165" width="2" height="10" transform="rotate(90 110 165)" fill="#1B1B1B"/>
<rect x="110" y="170" width="4" height="10" transform="rotate(90 110 170)" fill="#1B1B1B"/>
<path d="M71 102.528L75.3636 102.528L75.3636 103.057L71.4687 103.057L71.4687 105.085L71 105.085L71 102.528ZM72.3381 107.898L74.2727 107.898L74.2727 108.401L71 108.401L71 107.898L71.554 107.898L71.554 107.864C71.3878 107.787 71.2464 107.668 71.13 107.506C71.0149 107.344 70.9574 107.139 70.9574 106.892C70.9574 106.687 71.0021 106.506 71.0916 106.347C71.1825 106.187 71.3189 106.062 71.5007 105.972C71.6839 105.881 71.9148 105.835 72.1932 105.835L74.2727 105.835L74.2727 106.338L72.2273 106.338C71.9886 106.338 71.7983 106.405 71.6562 106.538C71.5142 106.673 71.4432 106.845 71.4432 107.054C71.4432 107.179 71.4751 107.306 71.5391 107.435C71.603 107.566 71.701 107.675 71.8331 107.763C71.9652 107.853 72.1335 107.898 72.3381 107.898ZM74.2727 111.998L71 110.787L71 110.276L74.2727 109.066L74.2727 109.611L71.6648 110.515L71.6648 110.549L74.2727 111.452L74.2727 111.998ZM70.9233 113.525C70.9233 113.317 70.9624 113.129 71.0405 112.96C71.12 112.791 71.2344 112.657 71.3835 112.558C71.5341 112.458 71.7159 112.408 71.929 112.408C72.1165 112.408 72.2685 112.445 72.3849 112.519C72.5028 112.593 72.5952 112.692 72.6619 112.815C72.7287 112.939 72.7784 113.075 72.8111 113.224C72.8452 113.375 72.8722 113.526 72.892 113.678C72.9176 113.877 72.9368 114.038 72.9496 114.162C72.9638 114.287 72.9872 114.378 73.0199 114.435C73.0526 114.493 73.1094 114.522 73.1903 114.522L73.2074 114.522C73.4176 114.522 73.581 114.464 73.6974 114.349C73.8139 114.236 73.8722 114.063 73.8722 113.832C73.8722 113.592 73.8196 113.403 73.7145 113.267C73.6094 113.131 73.4972 113.035 73.3778 112.979L73.5483 112.502C73.7472 112.587 73.902 112.701 74.0128 112.843C74.125 112.986 74.2031 113.143 74.2472 113.312C74.2926 113.482 74.3153 113.65 74.3153 113.815C74.3153 113.92 74.3026 114.04 74.277 114.177C74.2528 114.315 74.2024 114.447 74.1257 114.575C74.049 114.705 73.9332 114.812 73.7784 114.897C73.6236 114.982 73.4162 115.025 73.1562 115.025L71 115.025L71 114.522L71.4432 114.522L71.4432 114.496C71.3722 114.462 71.2962 114.406 71.2152 114.326C71.1342 114.246 71.0653 114.141 71.0085 114.009C70.9517 113.876 70.9233 113.715 70.9233 113.525ZM71.375 113.602C71.375 113.8 71.4141 113.968 71.4922 114.104C71.5703 114.242 71.6712 114.346 71.7947 114.415C71.9183 114.486 72.0483 114.522 72.1847 114.522L72.6449 114.522C72.6193 114.501 72.5959 114.454 72.5746 114.381C72.5547 114.31 72.5369 114.228 72.5213 114.134C72.5071 114.042 72.4943 113.952 72.483 113.864C72.473 113.777 72.4645 113.707 72.4574 113.653C72.4403 113.522 72.4126 113.4 72.3743 113.286C72.3374 113.174 72.2812 113.083 72.206 113.013C72.1321 112.945 72.0312 112.911 71.9034 112.911C71.7287 112.911 71.5966 112.976 71.5071 113.105C71.419 113.236 71.375 113.401 71.375 113.602ZM70.9318 117.272C70.9318 116.965 71.0043 116.701 71.1491 116.48C71.294 116.258 71.4936 116.088 71.7479 115.968C72.0021 115.849 72.2926 115.789 72.6193 115.789C72.9517 115.789 73.245 115.85 73.4993 115.972C73.755 116.096 73.9545 116.268 74.098 116.488C74.2429 116.71 74.3153 116.968 74.3153 117.264C74.3153 117.494 74.2727 117.701 74.1875 117.886C74.1023 118.07 73.983 118.222 73.8295 118.34C73.6761 118.458 73.4972 118.531 73.2926 118.559L73.2926 118.056C73.4418 118.018 73.5739 117.933 73.6889 117.801C73.8054 117.67 73.8636 117.494 73.8636 117.272C73.8636 117.076 73.8125 116.904 73.7102 116.757C73.6094 116.61 73.4666 116.496 73.282 116.414C73.0987 116.333 72.8835 116.292 72.6364 116.292C72.3835 116.292 72.1634 116.332 71.9759 116.411C71.7884 116.492 71.6428 116.606 71.5391 116.752C71.4354 116.9 71.3835 117.073 71.3835 117.272C71.3835 117.403 71.4062 117.521 71.4517 117.628C71.4972 117.735 71.5625 117.825 71.6477 117.899C71.733 117.972 71.8352 118.025 71.9545 118.056L71.9545 118.559C71.7614 118.531 71.5874 118.46 71.4325 118.348C71.2791 118.237 71.157 118.09 71.0661 117.907C70.9766 117.725 70.9318 117.514 70.9318 117.272ZM74.2727 120.717L73.8466 120.717L73.8466 119.021L74.2727 119.021L74.2727 120.717ZM75.0568 119.516L75.0568 120.019L71.9375 120.019C71.7955 120.019 71.6889 120.039 71.6179 120.08C71.5483 120.123 71.5014 120.177 71.4773 120.242C71.4545 120.309 71.4432 120.379 71.4432 120.453C71.4432 120.509 71.446 120.554 71.4517 120.59C71.4588 120.625 71.4645 120.654 71.4687 120.675L71.017 120.777C71.0043 120.743 70.9915 120.695 70.9787 120.634C70.9645 120.573 70.9574 120.496 70.9574 120.402C70.9574 120.26 70.9879 120.121 71.049 119.985C71.1101 119.85 71.2031 119.737 71.3281 119.648C71.4531 119.56 71.6108 119.516 71.8011 119.516L75.0568 119.516ZM71 121.474L74.2727 121.474L74.2727 121.977L71 121.977L71 121.474ZM74.8182 121.73C74.8182 121.632 74.8516 121.547 74.9183 121.476C74.9851 121.406 75.0653 121.372 75.1591 121.372C75.2528 121.372 75.3331 121.406 75.3999 121.476C75.4666 121.547 75.5 121.632 75.5 121.73C75.5 121.828 75.4666 121.911 75.3999 121.981C75.3331 122.052 75.2528 122.088 75.1591 122.088C75.0653 122.088 74.9851 122.052 74.9183 121.981C74.8516 121.911 74.8182 121.828 74.8182 121.73ZM72.9687 123.401L71 123.401L71 122.898L74.2727 122.898L74.2727 123.384L73.7614 123.384L73.7614 123.426C73.9276 123.503 74.0611 123.619 74.1619 123.776C74.2642 123.932 74.3153 124.134 74.3153 124.381C74.3153 124.602 74.2699 124.796 74.179 124.962C74.0895 125.129 73.9531 125.258 73.7699 125.35C73.5881 125.442 73.358 125.489 73.0795 125.489L71 125.489L71 124.986L73.0455 124.986C73.3026 124.986 73.5028 124.919 73.6463 124.786C73.7912 124.652 73.8636 124.469 73.8636 124.236C73.8636 124.075 73.8288 123.932 73.7592 123.805C73.6896 123.68 73.5881 123.582 73.4545 123.509C73.321 123.437 73.1591 123.401 72.9687 123.401Z" fill="#1B1B1B"/>
<path d="M125.364 103.707L121.69 105.003L121.69 105.054L125.364 106.349L125.364 106.903L121 105.301L121 104.756L125.364 103.153L125.364 103.707ZM120.932 108.582C120.932 108.267 121.001 107.995 121.141 107.766C121.281 107.539 121.477 107.364 121.729 107.24C121.982 107.118 122.276 107.057 122.611 107.057C122.946 107.057 123.241 107.118 123.497 107.24C123.754 107.364 123.955 107.536 124.098 107.756C124.243 107.977 124.315 108.236 124.315 108.531C124.315 108.702 124.287 108.87 124.23 109.036C124.173 109.202 124.081 109.354 123.953 109.49C123.827 109.626 123.659 109.735 123.45 109.816C123.241 109.897 122.984 109.937 122.679 109.937L122.466 109.937L122.466 107.415L122.901 107.415L122.901 109.426C123.085 109.426 123.25 109.389 123.395 109.315C123.54 109.243 123.654 109.139 123.738 109.004C123.822 108.871 123.864 108.713 123.864 108.531C123.864 108.331 123.814 108.158 123.714 108.011C123.616 107.866 123.489 107.755 123.331 107.677C123.173 107.599 123.004 107.56 122.824 107.56L122.534 107.56C122.287 107.56 122.077 107.602 121.906 107.687C121.735 107.774 121.605 107.894 121.516 108.048C121.428 108.201 121.384 108.379 121.384 108.582C121.384 108.714 121.402 108.834 121.439 108.94C121.477 109.048 121.534 109.141 121.609 109.219C121.686 109.298 121.781 109.358 121.895 109.401L121.759 109.886C121.594 109.835 121.449 109.749 121.324 109.629C121.2 109.508 121.104 109.359 121.034 109.181C120.966 109.004 120.932 108.804 120.932 108.582ZM121 110.702L124.273 110.702L124.273 111.188L123.778 111.188L123.778 111.222C123.94 111.282 124.072 111.39 124.173 111.546C124.273 111.702 124.324 111.879 124.324 112.075C124.324 112.111 124.323 112.158 124.322 112.213C124.32 112.268 124.318 112.31 124.315 112.339L123.804 112.339C123.808 112.322 123.815 112.283 123.823 112.222C123.833 112.162 123.838 112.099 123.838 112.032C123.838 111.873 123.805 111.731 123.738 111.606C123.673 111.482 123.582 111.384 123.465 111.312C123.35 111.241 123.219 111.205 123.071 111.205L121 111.205L121 110.702ZM121 113.003L125.364 113.003L125.364 113.506L123.753 113.506L123.753 113.548C123.81 113.585 123.882 113.637 123.97 113.702C124.06 113.769 124.139 113.864 124.209 113.987C124.28 114.112 124.315 114.281 124.315 114.494C124.315 114.77 124.246 115.013 124.109 115.223C123.971 115.433 123.776 115.597 123.523 115.715C123.27 115.833 122.972 115.892 122.628 115.892C122.281 115.892 121.981 115.833 121.727 115.715C121.474 115.597 121.278 115.434 121.138 115.225C121.001 115.017 120.932 114.776 120.932 114.503C120.932 114.293 120.967 114.124 121.036 113.998C121.107 113.872 121.187 113.774 121.277 113.706C121.368 113.638 121.443 113.585 121.503 113.548L121.503 113.489L121 113.489L121 113.003ZM122.636 113.497C122.389 113.497 122.171 113.534 121.982 113.606C121.795 113.678 121.648 113.784 121.541 113.923C121.436 114.063 121.384 114.233 121.384 114.435C121.384 114.645 121.439 114.82 121.55 114.961C121.662 115.103 121.812 115.21 122.001 115.281C122.192 115.353 122.403 115.389 122.636 115.389C122.866 115.389 123.074 115.354 123.259 115.283C123.445 115.213 123.592 115.107 123.7 114.965C123.809 114.825 123.864 114.648 123.864 114.435C123.864 114.23 123.812 114.058 123.708 113.919C123.606 113.78 123.462 113.675 123.278 113.604C123.094 113.533 122.881 113.497 122.636 113.497ZM120.923 117.624C120.923 117.417 120.962 117.229 121.04 117.06C121.12 116.891 121.234 116.757 121.384 116.657C121.534 116.558 121.716 116.508 121.929 116.508C122.116 116.508 122.268 116.545 122.385 116.619C122.503 116.693 122.595 116.791 122.662 116.915C122.729 117.039 122.778 117.175 122.811 117.324C122.845 117.475 122.872 117.626 122.892 117.778C122.918 117.977 122.937 118.138 122.95 118.262C122.964 118.387 122.987 118.477 123.02 118.534C123.053 118.592 123.109 118.622 123.19 118.622L123.207 118.622C123.418 118.622 123.581 118.564 123.697 118.449C123.814 118.335 123.872 118.163 123.872 117.931C123.872 117.691 123.82 117.503 123.714 117.367C123.609 117.23 123.497 117.134 123.378 117.079L123.548 116.602C123.747 116.687 123.902 116.801 124.013 116.943C124.125 117.086 124.203 117.242 124.247 117.411C124.293 117.582 124.315 117.749 124.315 117.914C124.315 118.019 124.303 118.14 124.277 118.276C124.253 118.414 124.202 118.547 124.126 118.675C124.049 118.804 123.933 118.911 123.778 118.997C123.624 119.082 123.416 119.124 123.156 119.124L121 119.124L121 118.622L121.443 118.622L121.443 118.596C121.372 118.562 121.296 118.505 121.215 118.426C121.134 118.346 121.065 118.24 121.009 118.108C120.952 117.976 120.923 117.815 120.923 117.624ZM121.375 117.701C121.375 117.9 121.414 118.068 121.492 118.204C121.57 118.342 121.671 118.445 121.795 118.515C121.918 118.586 122.048 118.622 122.185 118.622L122.645 118.622C122.619 118.6 122.596 118.553 122.575 118.481C122.555 118.41 122.537 118.328 122.521 118.234C122.507 118.142 122.494 118.051 122.483 117.963C122.473 117.877 122.464 117.806 122.457 117.752C122.44 117.622 122.413 117.499 122.374 117.386C122.337 117.274 122.281 117.183 122.206 117.113C122.132 117.045 122.031 117.011 121.903 117.011C121.729 117.011 121.597 117.075 121.507 117.205C121.419 117.335 121.375 117.501 121.375 117.701ZM125.364 120.545L121 120.545L121 120.042L125.364 120.042L125.364 120.545ZM122.338 123.529L124.273 123.529L124.273 124.031L121 124.031L121 123.529L121.554 123.529L121.554 123.494C121.388 123.418 121.246 123.298 121.13 123.137C121.015 122.975 120.957 122.77 120.957 122.523C120.957 122.318 121.002 122.137 121.092 121.977C121.183 121.818 121.319 121.693 121.501 121.602C121.684 121.512 121.915 121.466 122.193 121.466L124.273 121.466L124.273 121.969L122.227 121.969C121.989 121.969 121.798 122.036 121.656 122.169C121.514 122.304 121.443 122.476 121.443 122.685C121.443 122.81 121.475 122.937 121.539 123.066C121.603 123.197 121.701 123.306 121.833 123.394C121.965 123.484 122.134 123.529 122.338 123.529ZM120.932 126.282C120.932 125.975 121.004 125.711 121.149 125.489C121.294 125.268 121.494 125.097 121.748 124.978C122.002 124.859 122.293 124.799 122.619 124.799C122.952 124.799 123.245 124.86 123.499 124.982C123.755 125.106 123.955 125.278 124.098 125.498C124.243 125.719 124.315 125.978 124.315 126.273C124.315 126.504 124.273 126.711 124.187 126.896C124.102 127.08 123.983 127.232 123.83 127.349C123.676 127.467 123.497 127.54 123.293 127.569L123.293 127.066C123.442 127.028 123.574 126.942 123.689 126.81C123.805 126.68 123.864 126.504 123.864 126.282C123.864 126.086 123.812 125.914 123.71 125.766C123.609 125.62 123.467 125.506 123.282 125.423C123.099 125.342 122.884 125.302 122.636 125.302C122.384 125.302 122.163 125.342 121.976 125.421C121.788 125.502 121.643 125.616 121.539 125.762C121.435 125.91 121.384 126.083 121.384 126.282C121.384 126.413 121.406 126.531 121.452 126.638C121.497 126.744 121.562 126.835 121.648 126.908C121.733 126.982 121.835 127.035 121.955 127.066L121.955 127.569C121.761 127.54 121.587 127.47 121.433 127.358C121.279 127.247 121.157 127.1 121.066 126.917C120.977 126.735 120.932 126.523 120.932 126.282ZM120.932 129.676C120.932 129.361 121.001 129.089 121.141 128.86C121.281 128.633 121.477 128.457 121.729 128.334C121.982 128.212 122.276 128.151 122.611 128.151C122.946 128.151 123.241 128.212 123.497 128.334C123.754 128.457 123.955 128.629 124.098 128.849C124.243 129.071 124.315 129.33 124.315 129.625C124.315 129.795 124.287 129.964 124.23 130.13C124.173 130.296 124.081 130.447 123.953 130.584C123.827 130.72 123.659 130.829 123.45 130.91C123.241 130.991 122.984 131.031 122.679 131.031L122.466 131.031L122.466 128.509L122.901 128.509L122.901 130.52C123.085 130.52 123.25 130.483 123.395 130.409C123.54 130.337 123.654 130.233 123.738 130.098C123.822 129.964 123.864 129.807 123.864 129.625C123.864 129.425 123.814 129.251 123.714 129.105C123.616 128.96 123.489 128.849 123.331 128.771C123.173 128.692 123.004 128.653 122.824 128.653L122.534 128.653C122.287 128.653 122.077 128.696 121.906 128.781C121.735 128.868 121.605 128.988 121.516 129.141C121.428 129.295 121.384 129.473 121.384 129.676C121.384 129.808 121.402 129.928 121.439 130.034C121.477 130.142 121.534 130.235 121.609 130.313C121.686 130.391 121.781 130.452 121.895 130.494L121.759 130.98C121.594 130.929 121.449 130.843 121.324 130.722C121.2 130.602 121.104 130.452 121.034 130.275C120.966 130.097 120.932 129.898 120.932 129.676Z" fill="#1B1B1B"/>
<line x1="163" y1="79.5" x2="176" y2="79.5" stroke="#878787"/>
<path d="M169 72.5H170C180.77 72.5 189.5 81.2304 189.5 92V205C189.5 207.485 187.485 209.5 185 209.5H154C151.515 209.5 149.5 207.485 149.5 205V92C149.5 81.2304 158.23 72.5 169 72.5Z" stroke="#878787"/>
<path d="M185.5 97.5V176C185.5 178.485 183.485 180.5 181 180.5H158C155.515 180.5 153.5 178.485 153.5 176V97.5C153.5 88.6634 160.663 81.5 169.5 81.5C178.337 81.5 185.5 88.6634 185.5 97.5Z" fill="#5D3E66" stroke="#878787"/>
<line x1="163.5" y1="83" x2="163.5" y2="80" stroke="#878787"/>
<line x1="175.5" y1="83" x2="175.5" y2="80" stroke="#878787"/>
<rect x="164" y="80" width="11" height="3" fill="#5D3E66"/>
<path d="M177 144.364C177.383 144.239 177.725 144.074 178.028 143.869C178.335 143.669 178.597 143.428 178.812 143.148C179.028 142.871 179.193 142.557 179.307 142.205C179.42 141.852 179.477 141.466 179.477 141.045C179.477 140.356 179.299 139.729 178.943 139.165C178.587 138.6 178.062 138.152 177.369 137.818C176.676 137.485 175.826 137.318 174.818 137.318C173.811 137.318 172.96 137.487 172.267 137.824C171.574 138.161 171.049 138.617 170.693 139.193C170.337 139.769 170.159 140.417 170.159 141.136C170.159 141.803 170.301 142.39 170.585 142.898C170.873 143.409 171.278 143.807 171.801 144.091C172.328 144.379 172.947 144.523 173.659 144.523L173.568 144.955L173.568 141.455L174.818 141.455L174.818 145.886L173.568 145.886C172.61 145.886 171.777 145.682 171.068 145.273C170.36 144.867 169.811 144.307 169.42 143.591C169.034 142.879 168.841 142.061 168.841 141.136C168.841 140.106 169.083 139.201 169.568 138.42C170.053 137.644 170.742 137.038 171.636 136.602C172.53 136.17 173.591 135.955 174.818 135.955C175.739 135.955 176.566 136.078 177.301 136.324C178.04 136.574 178.669 136.926 179.187 137.381C179.706 137.835 180.104 138.373 180.381 138.994C180.657 139.616 180.795 140.299 180.795 141.045C180.795 141.659 180.703 142.231 180.517 142.761C180.335 143.295 180.076 143.771 179.739 144.187C179.405 144.608 179.006 144.958 178.54 145.239C178.078 145.519 177.564 145.712 177 145.818L177 144.364ZM175.443 153.118L174.193 153.118L174.193 148.027L175.443 148.027L175.443 153.118ZM171.386 155.182L172.545 155.182L180.636 160.295L180.636 161.136L178.841 161.136L178.841 160.568L172.727 156.705L172.636 156.705L172.636 163.591L171.386 163.591L171.386 155.182ZM169 160.659L171.739 160.659L172.278 160.659L180.636 160.659L180.636 162L169 162L169 160.659ZM168.841 169.584C168.848 169.107 168.939 168.629 169.114 168.152C169.288 167.675 169.581 167.239 169.994 166.845C170.411 166.451 170.973 166.135 171.682 165.896C172.394 165.658 173.288 165.538 174.364 165.538C175.394 165.538 176.307 165.635 177.102 165.828C177.902 166.021 178.574 166.302 179.119 166.669C179.669 167.036 180.085 167.48 180.369 167.999C180.653 168.521 180.795 169.11 180.795 169.766C180.795 170.417 180.665 170.997 180.403 171.504C180.146 172.016 179.786 172.432 179.324 172.754C178.862 173.076 178.33 173.285 177.727 173.379L177.727 171.993C178.25 171.864 178.684 171.614 179.028 171.243C179.373 170.872 179.545 170.379 179.545 169.766C179.545 168.864 179.153 168.154 178.369 167.635C177.585 167.12 176.485 166.86 175.068 166.857L175.068 166.947C175.39 167.16 175.665 167.411 175.892 167.703C176.123 167.999 176.301 168.324 176.426 168.68C176.551 169.036 176.614 169.413 176.614 169.811C176.614 170.478 176.447 171.088 176.114 171.641C175.784 172.194 175.328 172.637 174.744 172.97C174.165 173.304 173.5 173.47 172.75 173.47C172.03 173.47 171.371 173.309 170.773 172.987C170.178 172.665 169.705 172.213 169.352 171.629C169.004 171.05 168.833 170.368 168.841 169.584ZM170.091 169.584C170.091 170.061 170.21 170.489 170.449 170.868C170.687 171.25 171.008 171.552 171.409 171.771C171.811 171.995 172.258 172.107 172.75 172.107C173.231 172.107 173.669 171.999 174.062 171.783C174.46 171.571 174.777 171.277 175.011 170.902C175.246 170.531 175.364 170.107 175.364 169.629C175.364 169.269 175.292 168.934 175.148 168.624C175.008 168.313 174.814 168.04 174.568 167.805C174.322 167.574 174.04 167.393 173.722 167.26C173.407 167.127 173.076 167.061 172.727 167.061C172.265 167.061 171.833 167.169 171.432 167.385C171.03 167.605 170.706 167.904 170.46 168.283C170.214 168.665 170.091 169.099 170.091 169.584Z" fill="#1B1B1B"/>
<rect x="165" y="103" width="3" height="10" transform="rotate(90 165 103)" fill="#1B1B1B"/>
<rect x="165" y="107" width="2" height="10" transform="rotate(90 165 107)" fill="#1B1B1B"/>
<rect x="165" y="110" width="3" height="10" transform="rotate(90 165 110)" fill="#1B1B1B"/>
<rect x="165" y="116" width="2" height="10" transform="rotate(90 165 116)" fill="#1B1B1B"/>
<rect x="165" y="120" width="3" height="10" transform="rotate(90 165 120)" fill="#1B1B1B"/>
<rect x="165" y="124" width="4" height="10" transform="rotate(90 165 124)" fill="#1B1B1B"/>
<rect x="165" y="131" width="3" height="10" transform="rotate(90 165 131)" fill="#1B1B1B"/>
<rect x="165" y="137" width="5" height="10" transform="rotate(90 165 137)" fill="#1B1B1B"/>
<rect x="165" y="143" width="2" height="10" transform="rotate(90 165 143)" fill="#1B1B1B"/>
<rect x="165" y="148" width="2" height="10" transform="rotate(90 165 148)" fill="#1B1B1B"/>
<rect x="165" y="152" width="4" height="10" transform="rotate(90 165 152)" fill="#1B1B1B"/>
<rect x="165" y="157" width="2" height="10" transform="rotate(90 165 157)" fill="#1B1B1B"/>
<rect x="165" y="161" width="3" height="10" transform="rotate(90 165 161)" fill="#1B1B1B"/>
<rect x="165" y="165" width="2" height="10" transform="rotate(90 165 165)" fill="#1B1B1B"/>
<rect x="165" y="170" width="4" height="10" transform="rotate(90 165 170)" fill="#1B1B1B"/>
<path d="M176 103.528L180.364 103.528L180.364 104.057L176.469 104.057L176.469 106.085L176 106.085L176 103.528ZM175.923 107.798C175.923 107.591 175.962 107.403 176.04 107.234C176.12 107.065 176.234 106.93 176.384 106.831C176.534 106.732 176.716 106.682 176.929 106.682C177.116 106.682 177.268 106.719 177.385 106.793C177.503 106.866 177.595 106.965 177.662 107.089C177.729 107.212 177.778 107.349 177.811 107.498C177.845 107.648 177.872 107.8 177.892 107.952C177.918 108.151 177.937 108.312 177.95 108.435C177.964 108.56 177.987 108.651 178.02 108.708C178.053 108.766 178.109 108.795 178.19 108.795L178.207 108.795C178.418 108.795 178.581 108.738 178.697 108.623C178.814 108.509 178.872 108.337 178.872 108.105C178.872 107.865 178.82 107.677 178.714 107.54C178.609 107.404 178.497 107.308 178.378 107.253L178.548 106.776C178.747 106.861 178.902 106.974 179.013 107.116C179.125 107.26 179.203 107.416 179.247 107.585C179.293 107.756 179.315 107.923 179.315 108.088C179.315 108.193 179.303 108.314 179.277 108.45C179.253 108.588 179.202 108.721 179.126 108.849C179.049 108.978 178.933 109.085 178.778 109.17C178.624 109.256 178.416 109.298 178.156 109.298L176 109.298L176 108.795L176.443 108.795L176.443 108.77C176.372 108.736 176.296 108.679 176.215 108.599C176.134 108.52 176.065 108.414 176.009 108.282C175.952 108.15 175.923 107.989 175.923 107.798ZM176.375 107.875C176.375 108.074 176.414 108.241 176.492 108.378C176.57 108.516 176.671 108.619 176.795 108.689C176.918 108.76 177.048 108.795 177.185 108.795L177.645 108.795C177.619 108.774 177.596 108.727 177.575 108.655C177.555 108.584 177.537 108.501 177.521 108.408C177.507 108.315 177.494 108.225 177.483 108.137C177.473 108.05 177.464 107.98 177.457 107.926C177.44 107.795 177.413 107.673 177.374 107.56C177.337 107.447 177.281 107.357 177.206 107.287C177.132 107.219 177.031 107.185 176.903 107.185C176.729 107.185 176.597 107.249 176.507 107.379C176.419 107.509 176.375 107.675 176.375 107.875ZM179.273 111.673L178.847 111.673L178.847 109.909L179.273 109.909L179.273 111.673ZM176 110.438L179.724 110.438C179.912 110.438 180.068 110.482 180.193 110.57C180.318 110.658 180.412 110.772 180.474 110.913C180.537 111.053 180.568 111.202 180.568 111.358C180.568 111.482 180.558 111.583 180.538 111.661C180.518 111.739 180.5 111.797 180.483 111.835L180.048 111.691C180.057 111.665 180.067 111.629 180.08 111.584C180.093 111.54 180.099 111.482 180.099 111.409C180.099 111.243 180.058 111.123 179.974 111.049C179.89 110.977 179.767 110.941 179.605 110.941L176 110.941L176 110.438ZM179.273 113.836L178.847 113.836L178.847 112.071L179.273 112.071L179.273 113.836ZM176 112.6L179.724 112.6C179.912 112.6 180.068 112.644 180.193 112.732C180.318 112.82 180.412 112.934 180.474 113.075C180.537 113.216 180.568 113.364 180.568 113.52C180.568 113.644 180.558 113.745 180.538 113.823C180.518 113.901 180.5 113.959 180.483 113.998L180.048 113.853C180.057 113.827 180.067 113.792 180.08 113.746C180.093 113.702 180.099 113.644 180.099 113.571C180.099 113.405 180.058 113.285 179.974 113.211C179.89 113.139 179.767 113.103 179.605 113.103L176 113.103L176 112.6ZM175.932 115.735C175.932 115.44 176.002 115.18 176.143 114.957C176.283 114.736 176.48 114.562 176.733 114.437C176.986 114.314 177.281 114.252 177.619 114.252C177.96 114.252 178.258 114.314 178.512 114.437C178.766 114.562 178.964 114.736 179.104 114.957C179.245 115.18 179.315 115.44 179.315 115.735C179.315 116.031 179.245 116.289 179.104 116.511C178.964 116.734 178.766 116.907 178.512 117.031C178.258 117.156 177.96 117.218 177.619 117.218C177.281 117.218 176.986 117.156 176.733 117.031C176.48 116.907 176.283 116.734 176.143 116.511C176.002 116.289 175.932 116.031 175.932 115.735ZM176.384 115.735C176.384 115.96 176.441 116.144 176.556 116.289C176.671 116.434 176.822 116.541 177.01 116.611C177.197 116.68 177.401 116.715 177.619 116.715C177.838 116.715 178.042 116.68 178.231 116.611C178.42 116.541 178.572 116.434 178.689 116.289C178.805 116.144 178.864 115.96 178.864 115.735C178.864 115.511 178.805 115.326 178.689 115.181C178.572 115.036 178.42 114.929 178.231 114.859C178.042 114.79 177.838 114.755 177.619 114.755C177.401 114.755 177.197 114.79 177.01 114.859C176.822 114.929 176.671 115.036 176.556 115.181C176.441 115.326 176.384 115.511 176.384 115.735ZM175.932 119.221C175.932 118.949 176.001 118.708 176.138 118.499C176.278 118.29 176.474 118.127 176.727 118.009C176.981 117.891 177.281 117.832 177.628 117.832C177.972 117.832 178.27 117.891 178.523 118.009C178.776 118.127 178.971 118.291 179.109 118.501C179.246 118.711 179.315 118.954 179.315 119.23C179.315 119.443 179.28 119.611 179.209 119.735C179.139 119.86 179.06 119.955 178.97 120.02C178.882 120.087 178.81 120.139 178.753 120.176L178.753 120.219L180.364 120.219L180.364 120.721L176 120.721L176 120.236L176.503 120.236L176.503 120.176C176.443 120.139 176.368 120.086 176.277 120.018C176.187 119.95 176.107 119.853 176.036 119.726C175.967 119.6 175.932 119.432 175.932 119.221ZM176.384 119.29C176.384 119.491 176.436 119.662 176.541 119.801C176.648 119.94 176.795 120.046 176.982 120.118C177.171 120.191 177.389 120.227 177.636 120.227C177.881 120.227 178.094 120.192 178.278 120.121C178.462 120.05 178.606 119.944 178.708 119.805C178.812 119.666 178.864 119.494 178.864 119.29C178.864 119.077 178.809 118.899 178.7 118.757C178.592 118.616 178.445 118.51 178.259 118.439C178.074 118.37 177.866 118.335 177.636 118.335C177.403 118.335 177.192 118.371 177.001 118.442C176.812 118.514 176.662 118.621 176.55 118.761C176.439 118.903 176.384 119.079 176.384 119.29ZM176 121.712L179.273 121.712L179.273 122.215L176 122.215L176 121.712ZM179.818 121.968C179.818 121.87 179.852 121.785 179.918 121.714C179.985 121.645 180.065 121.61 180.159 121.61C180.253 121.61 180.333 121.645 180.4 121.714C180.467 121.785 180.5 121.87 180.5 121.968C180.5 122.066 180.467 122.15 180.4 122.219C180.333 122.29 180.253 122.326 180.159 122.326C180.065 122.326 179.985 122.29 179.918 122.219C179.852 122.15 179.818 122.066 179.818 121.968ZM180.364 123.639L176 123.639L176 123.136L180.364 123.136L180.364 123.639Z" fill="#1B1B1B"/>
<line x1="218" y1="79.5" x2="231" y2="79.5" stroke="#878787"/>
<path d="M224 72.5H225C235.77 72.5 244.5 81.2304 244.5 92V205C244.5 207.485 242.485 209.5 240 209.5H209C206.515 209.5 204.5 207.485 204.5 205V92C204.5 81.2304 213.23 72.5 224 72.5Z" stroke="#878787"/>
<path d="M240.5 97.5V176C240.5 178.485 238.485 180.5 236 180.5H213C210.515 180.5 208.5 178.485 208.5 176V97.5C208.5 88.6634 215.663 81.5 224.5 81.5C233.337 81.5 240.5 88.6634 240.5 97.5Z" fill="#1F491F" stroke="#878787"/>
<line x1="218.5" y1="83" x2="218.5" y2="80" stroke="#878787"/>
<line x1="230.5" y1="83" x2="230.5" y2="80" stroke="#878787"/>
<rect x="219" y="80" width="11" height="3" fill="#1F491F"/>
<path d="M236.636 147.818L225 147.818L225 146.409L236.636 146.409L236.636 147.818ZM231.443 155.462L230.193 155.462L230.193 150.371L231.443 150.371L231.443 155.462ZM236.636 161.889L225 161.889L225 160.48L235.159 160.48L235.159 160.412L233.273 157.571L234.705 157.571L236.636 160.48L236.636 161.889ZM224.841 169.099C224.848 168.622 224.939 168.145 225.114 167.668C225.288 167.19 225.581 166.755 225.994 166.361C226.411 165.967 226.973 165.651 227.682 165.412C228.394 165.173 229.288 165.054 230.364 165.054C231.394 165.054 232.307 165.151 233.102 165.344C233.902 165.537 234.574 165.817 235.119 166.185C235.669 166.552 236.085 166.995 236.369 167.514C236.653 168.037 236.795 168.626 236.795 169.281C236.795 169.933 236.665 170.512 236.403 171.02C236.146 171.531 235.786 171.948 235.324 172.27C234.862 172.592 234.33 172.8 233.727 172.895L233.727 171.509C234.25 171.38 234.684 171.13 235.028 170.759C235.373 170.387 235.545 169.895 235.545 169.281C235.545 168.38 235.153 167.67 234.369 167.151C233.585 166.635 232.485 166.376 231.068 166.372L231.068 166.463C231.39 166.675 231.665 166.927 231.892 167.219C232.123 167.514 232.301 167.84 232.426 168.196C232.551 168.552 232.614 168.929 232.614 169.327C232.614 169.993 232.447 170.603 232.114 171.156C231.784 171.709 231.328 172.152 230.744 172.486C230.165 172.819 229.5 172.986 228.75 172.986C228.03 172.986 227.371 172.825 226.773 172.503C226.178 172.181 225.705 171.728 225.352 171.145C225.004 170.565 224.833 169.884 224.841 169.099ZM226.091 169.099C226.091 169.577 226.21 170.005 226.449 170.384C226.687 170.766 227.008 171.067 227.409 171.287C227.811 171.51 228.258 171.622 228.75 171.622C229.231 171.622 229.669 171.514 230.062 171.298C230.46 171.086 230.777 170.793 231.011 170.418C231.246 170.046 231.364 169.622 231.364 169.145C231.364 168.785 231.292 168.45 231.148 168.139C231.008 167.829 230.814 167.556 230.568 167.321C230.322 167.09 230.04 166.908 229.722 166.776C229.407 166.643 229.076 166.577 228.727 166.577C228.265 166.577 227.833 166.685 227.432 166.901C227.03 167.12 226.706 167.42 226.46 167.798C226.214 168.181 226.091 168.615 226.091 169.099Z" fill="#1B1B1B"/>
<rect x="220" y="103" width="3" height="10" transform="rotate(90 220 103)" fill="#1B1B1B"/>
<rect x="220" y="107" width="2" height="10" transform="rotate(90 220 107)" fill="#1B1B1B"/>
<rect x="220" y="110" width="3" height="10" transform="rotate(90 220 110)" fill="#1B1B1B"/>
<rect x="220" y="116" width="2" height="10" transform="rotate(90 220 116)" fill="#1B1B1B"/>
<rect x="220" y="120" width="3" height="10" transform="rotate(90 220 120)" fill="#1B1B1B"/>
<rect x="220" y="124" width="4" height="10" transform="rotate(90 220 124)" fill="#1B1B1B"/>
<rect x="220" y="131" width="3" height="10" transform="rotate(90 220 131)" fill="#1B1B1B"/>
<rect x="220" y="137" width="5" height="10" transform="rotate(90 220 137)" fill="#1B1B1B"/>
<rect x="220" y="143" width="2" height="10" transform="rotate(90 220 143)" fill="#1B1B1B"/>
<rect x="220" y="148" width="2" height="10" transform="rotate(90 220 148)" fill="#1B1B1B"/>
<rect x="220" y="152" width="4" height="10" transform="rotate(90 220 152)" fill="#1B1B1B"/>
<rect x="220" y="157" width="2" height="10" transform="rotate(90 220 157)" fill="#1B1B1B"/>
<rect x="220" y="161" width="3" height="10" transform="rotate(90 220 161)" fill="#1B1B1B"/>
<rect x="220" y="165" width="2" height="10" transform="rotate(90 220 165)" fill="#1B1B1B"/>
<rect x="220" y="170" width="4" height="10" transform="rotate(90 220 170)" fill="#1B1B1B"/>
<path d="M231 104.875L231 103.528L235.364 103.528L235.364 104.935C235.364 105.358 235.276 105.72 235.102 106.021C234.928 106.322 234.679 106.553 234.354 106.714C234.03 106.874 233.642 106.955 233.19 106.955C232.736 106.955 232.344 106.874 232.016 106.712C231.69 106.55 231.438 106.314 231.262 106.004C231.087 105.695 231 105.318 231 104.875ZM231.469 104.057L231.469 104.841C231.469 105.202 231.538 105.501 231.678 105.738C231.817 105.975 232.015 106.152 232.272 106.268C232.529 106.385 232.835 106.443 233.19 106.443C233.543 106.443 233.846 106.386 234.1 106.271C234.356 106.156 234.552 105.984 234.688 105.755C234.826 105.526 234.895 105.241 234.895 104.901L234.895 104.057L231.469 104.057ZM230.923 108.736C230.923 108.528 230.962 108.34 231.04 108.171C231.12 108.002 231.234 107.868 231.384 107.768C231.534 107.669 231.716 107.619 231.929 107.619C232.116 107.619 232.268 107.656 232.385 107.73C232.503 107.804 232.595 107.903 232.662 108.026C232.729 108.15 232.778 108.286 232.811 108.435C232.845 108.586 232.872 108.737 232.892 108.889C232.918 109.088 232.937 109.249 232.95 109.373C232.964 109.498 232.987 109.589 233.02 109.646C233.053 109.704 233.109 109.733 233.19 109.733L233.207 109.733C233.418 109.733 233.581 109.675 233.697 109.56C233.814 109.447 233.872 109.274 233.872 109.043C233.872 108.803 233.82 108.614 233.714 108.478C233.609 108.342 233.497 108.246 233.378 108.19L233.548 107.713C233.747 107.798 233.902 107.912 234.013 108.054C234.125 108.197 234.203 108.354 234.247 108.523C234.293 108.693 234.315 108.861 234.315 109.026C234.315 109.131 234.303 109.251 234.277 109.388C234.253 109.526 234.202 109.658 234.126 109.786C234.049 109.915 233.933 110.023 233.778 110.108C233.624 110.193 233.416 110.236 233.156 110.236L231 110.236L231 109.733L231.443 109.733L231.443 109.707C231.372 109.673 231.296 109.616 231.215 109.537C231.134 109.457 231.065 109.352 231.009 109.219C230.952 109.087 230.923 108.926 230.923 108.736ZM231.375 108.812C231.375 109.011 231.414 109.179 231.492 109.315C231.57 109.453 231.671 109.557 231.795 109.626C231.918 109.697 232.048 109.733 232.185 109.733L232.645 109.733C232.619 109.712 232.596 109.665 232.575 109.592C232.555 109.521 232.537 109.439 232.521 109.345C232.507 109.253 232.494 109.163 232.483 109.075C232.473 108.988 232.464 108.918 232.457 108.864C232.44 108.733 232.413 108.611 232.374 108.497C232.337 108.385 232.281 108.294 232.206 108.224C232.132 108.156 232.031 108.122 231.903 108.122C231.729 108.122 231.597 108.187 231.507 108.316C231.419 108.447 231.375 108.612 231.375 108.812ZM231 111.154L234.273 111.154L234.273 111.639L233.778 111.639L233.778 111.673C233.94 111.733 234.072 111.841 234.173 111.997C234.273 112.154 234.324 112.33 234.324 112.526C234.324 112.563 234.323 112.609 234.322 112.664C234.32 112.72 234.318 112.762 234.315 112.79L233.804 112.79C233.808 112.773 233.815 112.734 233.823 112.673C233.833 112.613 233.838 112.55 233.838 112.483C233.838 112.324 233.805 112.182 233.738 112.057C233.673 111.933 233.582 111.835 233.465 111.763C233.35 111.692 233.219 111.656 233.071 111.656L231 111.656L231 111.154ZM232.193 113.855L232.815 113.846L232.815 113.949L234.273 115.38L234.273 116.002L232.73 114.477L232.73 114.434L232.193 113.855ZM231 113.386L235.364 113.386L235.364 113.889L231 113.889L231 113.386ZM231 115.466L232.619 114.187L232.969 114.545L231 116.105L231 115.466ZM230.932 117.887C230.932 117.572 231.001 117.3 231.141 117.071C231.281 116.844 231.477 116.668 231.729 116.545C231.982 116.423 232.276 116.361 232.611 116.361C232.946 116.361 233.241 116.423 233.497 116.545C233.754 116.668 233.955 116.84 234.098 117.06C234.243 117.282 234.315 117.54 234.315 117.836C234.315 118.006 234.287 118.175 234.23 118.341C234.173 118.507 234.081 118.658 233.953 118.795C233.827 118.931 233.659 119.04 233.45 119.121C233.241 119.202 232.984 119.242 232.679 119.242L232.466 119.242L232.466 116.719L232.901 116.719L232.901 118.731C233.085 118.731 233.25 118.694 233.395 118.62C233.54 118.548 233.654 118.444 233.738 118.309C233.822 118.175 233.864 118.018 233.864 117.836C233.864 117.636 233.814 117.462 233.714 117.316C233.616 117.171 233.489 117.06 233.331 116.982C233.173 116.903 233.004 116.864 232.824 116.864L232.534 116.864C232.287 116.864 232.077 116.907 231.906 116.992C231.735 117.079 231.605 117.199 231.516 117.352C231.428 117.506 231.384 117.684 231.384 117.887C231.384 118.019 231.402 118.138 231.439 118.245C231.477 118.353 231.534 118.446 231.609 118.524C231.686 118.602 231.781 118.663 231.895 118.705L231.759 119.191C231.594 119.14 231.449 119.054 231.324 118.933C231.2 118.812 231.104 118.663 231.034 118.486C230.966 118.308 230.932 118.109 230.932 117.887ZM232.969 120.51L231 120.51L231 120.007L234.273 120.007L234.273 120.493L233.761 120.493L233.761 120.536C233.928 120.612 234.061 120.729 234.162 120.885C234.264 121.041 234.315 121.243 234.315 121.49C234.315 121.712 234.27 121.906 234.179 122.072C234.089 122.238 233.953 122.367 233.77 122.46C233.588 122.552 233.358 122.598 233.08 122.598L231 122.598L231 122.095L233.045 122.095C233.303 122.095 233.503 122.028 233.646 121.895C233.791 121.761 233.864 121.578 233.864 121.345C233.864 121.185 233.829 121.041 233.759 120.915C233.69 120.79 233.588 120.691 233.455 120.619C233.321 120.546 233.159 120.51 232.969 120.51ZM234.273 124.974L233.847 124.974L233.847 123.21L234.273 123.21L234.273 124.974ZM231 123.738L234.724 123.738C234.912 123.738 235.068 123.782 235.193 123.871C235.318 123.959 235.412 124.073 235.474 124.214C235.537 124.354 235.568 124.503 235.568 124.659C235.568 124.782 235.558 124.883 235.538 124.961C235.518 125.04 235.5 125.098 235.483 125.136L235.048 124.991C235.057 124.966 235.067 124.93 235.08 124.885C235.093 124.841 235.099 124.782 235.099 124.71C235.099 124.544 235.058 124.424 234.974 124.35C234.89 124.278 234.767 124.241 234.605 124.241L231 124.241L231 123.738ZM235.364 126.182L231 126.182L231 125.679L235.364 125.679L235.364 126.182ZM230.932 128.432C230.932 128.137 231.002 127.878 231.143 127.655C231.283 127.433 231.48 127.26 231.733 127.135C231.986 127.011 232.281 126.949 232.619 126.949C232.96 126.949 233.258 127.011 233.512 127.135C233.766 127.26 233.964 127.433 234.104 127.655C234.245 127.878 234.315 128.137 234.315 128.432C234.315 128.728 234.245 128.986 234.104 129.208C233.964 129.431 233.766 129.604 233.512 129.728C233.258 129.853 232.96 129.915 232.619 129.915C232.281 129.915 231.986 129.853 231.733 129.728C231.48 129.604 231.283 129.431 231.143 129.208C231.002 128.986 230.932 128.728 230.932 128.432ZM231.384 128.432C231.384 128.657 231.441 128.841 231.556 128.986C231.671 129.131 231.822 129.238 232.01 129.308C232.197 129.378 232.401 129.412 232.619 129.412C232.838 129.412 233.042 129.378 233.231 129.308C233.42 129.238 233.572 129.131 233.689 128.986C233.805 128.841 233.864 128.657 233.864 128.432C233.864 128.208 233.805 128.023 233.689 127.878C233.572 127.733 233.42 127.626 233.231 127.557C233.042 127.487 232.838 127.452 232.619 127.452C232.401 127.452 232.197 127.487 232.01 127.557C231.822 127.626 231.671 127.733 231.556 127.878C231.441 128.023 231.384 128.208 231.384 128.432ZM234.273 130.923L232.935 131.707L234.273 132.491L234.273 133.071L232.636 132.014L231 133.071L231 132.491L232.27 131.707L231 130.923L231 130.344L232.636 131.383L234.273 130.344L234.273 130.923ZM234.273 134.163L232.935 134.947L234.273 135.732L234.273 136.311L232.636 135.254L231 136.311L231 135.732L232.27 134.947L231 134.163L231 133.584L232.636 134.624L234.273 133.584L234.273 134.163Z" fill="#1B1B1B"/>
<line x1="273" y1="78.5" x2="286" y2="78.5" stroke="#878787"/>
<path d="M279 71.5H280C290.77 71.5 299.5 80.2304 299.5 91V204C299.5 206.485 297.485 208.5 295 208.5H264C261.515 208.5 259.5 206.485 259.5 204V91C259.5 80.2304 268.23 71.5 279 71.5Z" stroke="#878787"/>
<path d="M295.5 96.5V175C295.5 177.485 293.485 179.5 291 179.5H268C265.515 179.5 263.5 177.485 263.5 175V96.5C263.5 87.6634 270.663 80.5 279.5 80.5C288.337 80.5 295.5 87.6634 295.5 96.5Z" fill="#771D06" stroke="#878787"/>
<line x1="273.5" y1="82" x2="273.5" y2="79" stroke="#878787"/>
<line x1="285.5" y1="82" x2="285.5" y2="79" stroke="#878787"/>
<rect x="274" y="79" width="11" height="3" fill="#771D06"/>
<path d="M291.636 146.818L280 146.818L280 145.409L291.636 145.409L291.636 146.818ZM286.443 154.462L285.193 154.462L285.193 149.371L286.443 149.371L286.443 154.462ZM291.636 160.889L280 160.889L280 159.48L290.159 159.48L290.159 159.412L288.273 156.571L289.705 156.571L291.636 159.48L291.636 160.889ZM279.841 168.099C279.848 167.622 279.939 167.145 280.114 166.668C280.288 166.19 280.581 165.755 280.994 165.361C281.411 164.967 281.973 164.651 282.682 164.412C283.394 164.173 284.288 164.054 285.364 164.054C286.394 164.054 287.307 164.151 288.102 164.344C288.902 164.537 289.574 164.817 290.119 165.185C290.669 165.552 291.085 165.995 291.369 166.514C291.653 167.037 291.795 167.626 291.795 168.281C291.795 168.933 291.665 169.512 291.403 170.02C291.146 170.531 290.786 170.948 290.324 171.27C289.862 171.592 289.33 171.8 288.727 171.895L288.727 170.509C289.25 170.38 289.684 170.13 290.028 169.759C290.373 169.387 290.545 168.895 290.545 168.281C290.545 167.38 290.153 166.67 289.369 166.151C288.585 165.635 287.485 165.376 286.068 165.372L286.068 165.463C286.39 165.675 286.665 165.927 286.892 166.219C287.123 166.514 287.301 166.84 287.426 167.196C287.551 167.552 287.614 167.929 287.614 168.327C287.614 168.993 287.447 169.603 287.114 170.156C286.784 170.709 286.328 171.152 285.744 171.486C285.165 171.819 284.5 171.986 283.75 171.986C283.03 171.986 282.371 171.825 281.773 171.503C281.178 171.181 280.705 170.728 280.352 170.145C280.004 169.565 279.833 168.884 279.841 168.099ZM281.091 168.099C281.091 168.577 281.21 169.005 281.449 169.384C281.687 169.766 282.008 170.067 282.409 170.287C282.811 170.51 283.258 170.622 283.75 170.622C284.231 170.622 284.669 170.514 285.062 170.298C285.46 170.086 285.777 169.793 286.011 169.418C286.246 169.046 286.364 168.622 286.364 168.145C286.364 167.785 286.292 167.45 286.148 167.139C286.008 166.829 285.814 166.556 285.568 166.321C285.322 166.09 285.04 165.908 284.722 165.776C284.407 165.643 284.076 165.577 283.727 165.577C283.265 165.577 282.833 165.685 282.432 165.901C282.03 166.12 281.706 166.42 281.46 166.798C281.214 167.181 281.091 167.615 281.091 168.099Z" fill="#1B1B1B"/>
<rect x="275" y="102" width="3" height="10" transform="rotate(90 275 102)" fill="#1B1B1B"/>
<rect x="275" y="106" width="2" height="10" transform="rotate(90 275 106)" fill="#1B1B1B"/>
<rect x="275" y="109" width="3" height="10" transform="rotate(90 275 109)" fill="#1B1B1B"/>
<rect x="275" y="115" width="2" height="10" transform="rotate(90 275 115)" fill="#1B1B1B"/>
<rect x="275" y="119" width="3" height="10" transform="rotate(90 275 119)" fill="#1B1B1B"/>
<rect x="275" y="123" width="4" height="10" transform="rotate(90 275 123)" fill="#1B1B1B"/>
<rect x="275" y="130" width="3" height="10" transform="rotate(90 275 130)" fill="#1B1B1B"/>
<rect x="275" y="136" width="5" height="10" transform="rotate(90 275 136)" fill="#1B1B1B"/>
<rect x="275" y="142" width="2" height="10" transform="rotate(90 275 142)" fill="#1B1B1B"/>
<rect x="275" y="147" width="2" height="10" transform="rotate(90 275 147)" fill="#1B1B1B"/>
<rect x="275" y="151" width="4" height="10" transform="rotate(90 275 151)" fill="#1B1B1B"/>
<rect x="275" y="156" width="2" height="10" transform="rotate(90 275 156)" fill="#1B1B1B"/>
<rect x="275" y="160" width="3" height="10" transform="rotate(90 275 160)" fill="#1B1B1B"/>
<rect x="275" y="164" width="2" height="10" transform="rotate(90 275 164)" fill="#1B1B1B"/>
<rect x="275" y="169" width="4" height="10" transform="rotate(90 275 169)" fill="#1B1B1B"/>
<path d="M286 103.875L286 102.528L290.364 102.528L290.364 103.935C290.364 104.358 290.276 104.72 290.102 105.021C289.928 105.322 289.679 105.553 289.354 105.714C289.03 105.874 288.642 105.955 288.19 105.955C287.736 105.955 287.344 105.874 287.016 105.712C286.69 105.55 286.438 105.314 286.262 105.004C286.087 104.695 286 104.318 286 103.875ZM286.469 103.057L286.469 103.841C286.469 104.202 286.538 104.501 286.678 104.738C286.817 104.975 287.015 105.152 287.272 105.268C287.529 105.385 287.835 105.443 288.19 105.443C288.543 105.443 288.846 105.386 289.1 105.271C289.356 105.156 289.552 104.984 289.688 104.755C289.826 104.526 289.895 104.241 289.895 103.901L289.895 103.057L286.469 103.057ZM285.923 107.736C285.923 107.528 285.962 107.34 286.04 107.171C286.12 107.002 286.234 106.868 286.384 106.768C286.534 106.669 286.716 106.619 286.929 106.619C287.116 106.619 287.268 106.656 287.385 106.73C287.503 106.804 287.595 106.903 287.662 107.026C287.729 107.15 287.778 107.286 287.811 107.435C287.845 107.586 287.872 107.737 287.892 107.889C287.918 108.088 287.937 108.249 287.95 108.373C287.964 108.498 287.987 108.589 288.02 108.646C288.053 108.704 288.109 108.733 288.19 108.733L288.207 108.733C288.418 108.733 288.581 108.675 288.697 108.56C288.814 108.447 288.872 108.274 288.872 108.043C288.872 107.803 288.82 107.614 288.714 107.478C288.609 107.342 288.497 107.246 288.378 107.19L288.548 106.713C288.747 106.798 288.902 106.912 289.013 107.054C289.125 107.197 289.203 107.354 289.247 107.523C289.293 107.693 289.315 107.861 289.315 108.026C289.315 108.131 289.303 108.251 289.277 108.388C289.253 108.526 289.202 108.658 289.126 108.786C289.049 108.915 288.933 109.023 288.778 109.108C288.624 109.193 288.416 109.236 288.156 109.236L286 109.236L286 108.733L286.443 108.733L286.443 108.707C286.372 108.673 286.296 108.616 286.215 108.537C286.134 108.457 286.065 108.352 286.009 108.219C285.952 108.087 285.923 107.926 285.923 107.736ZM286.375 107.812C286.375 108.011 286.414 108.179 286.492 108.315C286.57 108.453 286.671 108.557 286.795 108.626C286.918 108.697 287.048 108.733 287.185 108.733L287.645 108.733C287.619 108.712 287.596 108.665 287.575 108.592C287.555 108.521 287.537 108.439 287.521 108.345C287.507 108.253 287.494 108.163 287.483 108.075C287.473 107.988 287.464 107.918 287.457 107.864C287.44 107.733 287.413 107.611 287.374 107.497C287.337 107.385 287.281 107.294 287.206 107.224C287.132 107.156 287.031 107.122 286.903 107.122C286.729 107.122 286.597 107.187 286.507 107.316C286.419 107.447 286.375 107.612 286.375 107.812ZM286 110.154L289.273 110.154L289.273 110.639L288.778 110.639L288.778 110.673C288.94 110.733 289.072 110.841 289.173 110.997C289.273 111.154 289.324 111.33 289.324 111.526C289.324 111.563 289.323 111.609 289.322 111.664C289.32 111.72 289.318 111.762 289.315 111.79L288.804 111.79C288.808 111.773 288.815 111.734 288.823 111.673C288.833 111.613 288.838 111.55 288.838 111.483C288.838 111.324 288.805 111.182 288.738 111.057C288.673 110.933 288.582 110.835 288.465 110.763C288.35 110.692 288.219 110.656 288.071 110.656L286 110.656L286 110.154ZM287.193 112.855L287.815 112.846L287.815 112.949L289.273 114.38L289.273 115.002L287.73 113.477L287.73 113.434L287.193 112.855ZM286 112.386L290.364 112.386L290.364 112.889L286 112.889L286 112.386ZM286 114.466L287.619 113.187L287.969 113.545L286 115.105L286 114.466ZM285.932 116.887C285.932 116.572 286.001 116.3 286.141 116.071C286.281 115.844 286.477 115.668 286.729 115.545C286.982 115.423 287.276 115.361 287.611 115.361C287.946 115.361 288.241 115.423 288.497 115.545C288.754 115.668 288.955 115.84 289.098 116.06C289.243 116.282 289.315 116.54 289.315 116.836C289.315 117.006 289.287 117.175 289.23 117.341C289.173 117.507 289.081 117.658 288.953 117.795C288.827 117.931 288.659 118.04 288.45 118.121C288.241 118.202 287.984 118.242 287.679 118.242L287.466 118.242L287.466 115.719L287.901 115.719L287.901 117.731C288.085 117.731 288.25 117.694 288.395 117.62C288.54 117.548 288.654 117.444 288.738 117.309C288.822 117.175 288.864 117.018 288.864 116.836C288.864 116.636 288.814 116.462 288.714 116.316C288.616 116.171 288.489 116.06 288.331 115.982C288.173 115.903 288.004 115.864 287.824 115.864L287.534 115.864C287.287 115.864 287.077 115.907 286.906 115.992C286.735 116.079 286.605 116.199 286.516 116.352C286.428 116.506 286.384 116.684 286.384 116.887C286.384 117.019 286.402 117.138 286.439 117.245C286.477 117.353 286.534 117.446 286.609 117.524C286.686 117.602 286.781 117.663 286.895 117.705L286.759 118.191C286.594 118.14 286.449 118.054 286.324 117.933C286.2 117.812 286.104 117.663 286.034 117.486C285.966 117.308 285.932 117.109 285.932 116.887ZM287.969 119.51L286 119.51L286 119.007L289.273 119.007L289.273 119.493L288.761 119.493L288.761 119.536C288.928 119.612 289.061 119.729 289.162 119.885C289.264 120.041 289.315 120.243 289.315 120.49C289.315 120.712 289.27 120.906 289.179 121.072C289.089 121.238 288.953 121.367 288.77 121.46C288.588 121.552 288.358 121.598 288.08 121.598L286 121.598L286 121.095L288.045 121.095C288.303 121.095 288.503 121.028 288.646 120.895C288.791 120.761 288.864 120.578 288.864 120.345C288.864 120.185 288.829 120.041 288.759 119.915C288.69 119.79 288.588 119.691 288.455 119.619C288.321 119.546 288.159 119.51 287.969 119.51ZM289.273 123.974L288.847 123.974L288.847 122.21L289.273 122.21L289.273 123.974ZM286 122.738L289.724 122.738C289.912 122.738 290.068 122.782 290.193 122.871C290.318 122.959 290.412 123.073 290.474 123.214C290.537 123.354 290.568 123.503 290.568 123.659C290.568 123.782 290.558 123.883 290.538 123.961C290.518 124.04 290.5 124.098 290.483 124.136L290.048 123.991C290.057 123.966 290.067 123.93 290.08 123.885C290.093 123.841 290.099 123.782 290.099 123.71C290.099 123.544 290.058 123.424 289.974 123.35C289.89 123.278 289.767 123.241 289.605 123.241L286 123.241L286 122.738ZM290.364 125.182L286 125.182L286 124.679L290.364 124.679L290.364 125.182ZM285.932 127.432C285.932 127.137 286.002 126.878 286.143 126.655C286.283 126.433 286.48 126.26 286.733 126.135C286.986 126.011 287.281 125.949 287.619 125.949C287.96 125.949 288.258 126.011 288.512 126.135C288.766 126.26 288.964 126.433 289.104 126.655C289.245 126.878 289.315 127.137 289.315 127.432C289.315 127.728 289.245 127.986 289.104 128.208C288.964 128.431 288.766 128.604 288.512 128.728C288.258 128.853 287.96 128.915 287.619 128.915C287.281 128.915 286.986 128.853 286.733 128.728C286.48 128.604 286.283 128.431 286.143 128.208C286.002 127.986 285.932 127.728 285.932 127.432ZM286.384 127.432C286.384 127.657 286.441 127.841 286.556 127.986C286.671 128.131 286.822 128.238 287.01 128.308C287.197 128.378 287.401 128.412 287.619 128.412C287.838 128.412 288.042 128.378 288.231 128.308C288.42 128.238 288.572 128.131 288.689 127.986C288.805 127.841 288.864 127.657 288.864 127.432C288.864 127.208 288.805 127.023 288.689 126.878C288.572 126.733 288.42 126.626 288.231 126.557C288.042 126.487 287.838 126.452 287.619 126.452C287.401 126.452 287.197 126.487 287.01 126.557C286.822 126.626 286.671 126.733 286.556 126.878C286.441 127.023 286.384 127.208 286.384 127.432ZM289.273 129.923L287.935 130.707L289.273 131.491L289.273 132.071L287.636 131.014L286 132.071L286 131.491L287.27 130.707L286 129.923L286 129.344L287.636 130.383L289.273 129.344L289.273 129.923ZM289.273 133.163L287.935 133.947L289.273 134.732L289.273 135.311L287.636 134.254L286 135.311L286 134.732L287.27 133.947L286 133.163L286 132.584L287.636 133.624L289.273 132.584L289.273 133.163Z" fill="#1B1B1B"/>
</svg>
